<svg width="35" height="53" viewBox="0 0 35 53" fill="none" xmlns="http://www.w3.org/2000/svg">
<path d="M34.9336 30.8359C34.9336 37.9141 33.4688 43.3281 30.5391 47.0781C27.6094 50.8281 23.3203 52.7031 17.6719 52.7031C12.0938 52.7031 7.82812 50.8633 4.875 47.1836C1.92188 43.5039 0.410156 38.2305 0.339844 31.3633V21.9414C0.339844 14.793 1.81641 9.36719 4.76953 5.66406C7.74609 1.96094 12.0234 0.109375 17.6016 0.109375C23.1797 0.109375 27.4453 1.94922 30.3984 5.62891C33.3516 9.28516 34.8633 14.5469 34.9336 21.4141V30.8359ZM24.7734 20.5C24.7734 16.2578 24.1875 13.1758 23.0156 11.2539C21.8672 9.30859 20.0625 8.33594 17.6016 8.33594C15.2109 8.33594 13.4414 9.26172 12.293 11.1133C11.168 12.9414 10.5703 15.8125 10.5 19.7266V32.1719C10.5 36.3438 11.0625 39.4492 12.1875 41.4883C13.3359 43.5039 15.1641 44.5117 17.6719 44.5117C20.1562 44.5117 21.9492 43.5391 23.0508 41.5938C24.1523 39.6484 24.7266 36.6719 24.7734 32.6641V20.5Z" fill="#0391D3"/>
</svg>
