<svg width="36" height="53" viewBox="0 0 36 53" fill="none" xmlns="http://www.w3.org/2000/svg">
<path d="M11.8164 21.9062H17.2305C19.8086 21.9062 21.7188 21.2617 22.9609 19.9727C24.2031 18.6836 24.8242 16.9727 24.8242 14.8398C24.8242 12.7773 24.2031 11.1719 22.9609 10.0234C21.7422 8.875 20.0547 8.30078 17.8984 8.30078C15.9531 8.30078 14.3242 8.83984 13.0117 9.91797C11.6992 10.9727 11.043 12.3555 11.043 14.0664H0.882812C0.882812 11.3945 1.59766 9.00391 3.02734 6.89453C4.48047 4.76172 6.49609 3.09766 9.07422 1.90234C11.6758 0.707031 14.5352 0.109375 17.6523 0.109375C23.0664 0.109375 27.3086 1.41016 30.3789 4.01172C33.4492 6.58984 34.9844 10.1523 34.9844 14.6992C34.9844 17.043 34.2695 19.1992 32.8398 21.168C31.4102 23.1367 29.5352 24.6484 27.2148 25.7031C30.0977 26.7344 32.2422 28.2812 33.6484 30.3438C35.0781 32.4062 35.793 34.8438 35.793 37.6562C35.793 42.2031 34.1289 45.8477 30.8008 48.5898C27.4961 51.332 23.1133 52.7031 17.6523 52.7031C12.543 52.7031 8.35938 51.3555 5.10156 48.6602C1.86719 45.9648 0.25 42.4023 0.25 37.9727H10.4102C10.4102 39.8945 11.125 41.4648 12.5547 42.6836C14.0078 43.9023 15.7891 44.5117 17.8984 44.5117C20.3125 44.5117 22.1992 43.8789 23.5586 42.6133C24.9414 41.3242 25.6328 39.625 25.6328 37.5156C25.6328 32.4062 22.8203 29.8516 17.1953 29.8516H11.8164V21.9062Z" fill="#0391D3"/>
</svg>
