<svg width="140" height="13" viewBox="0 0 140 13" fill="none" xmlns="http://www.w3.org/2000/svg">
<path d="M0.155273 10.0034V0.050293H3.40918C4.48926 0.050293 5.30046 0.2736 5.84277 0.720215C6.38965 1.16683 6.66309 1.82764 6.66309 2.70264C6.66309 3.16748 6.53092 3.57992 6.2666 3.93994C6.00228 4.29541 5.64225 4.57113 5.18652 4.76709C5.72428 4.91748 6.14811 5.20459 6.45801 5.62842C6.77246 6.04769 6.92969 6.54899 6.92969 7.13232C6.92969 8.02555 6.6403 8.72738 6.06152 9.23779C5.48275 9.74821 4.66471 10.0034 3.60742 10.0034H0.155273ZM1.46777 5.34814V8.93018H3.63477C4.24544 8.93018 4.72624 8.77295 5.07715 8.4585C5.43262 8.13949 5.61035 7.70199 5.61035 7.146C5.61035 5.94743 4.95866 5.34814 3.65527 5.34814H1.46777ZM1.46777 4.29541H3.4502C4.02441 4.29541 4.48242 4.15186 4.82422 3.86475C5.17057 3.57764 5.34375 3.18799 5.34375 2.6958C5.34375 2.14893 5.18424 1.75244 4.86523 1.50635C4.54622 1.2557 4.06087 1.13037 3.40918 1.13037H1.46777V4.29541ZM13.2461 10.0034C13.1732 9.85758 13.1139 9.59782 13.0684 9.22412C12.4805 9.8348 11.7786 10.1401 10.9629 10.1401C10.2337 10.1401 9.63444 9.93506 9.16504 9.5249C8.7002 9.11019 8.46777 8.5861 8.46777 7.95264C8.46777 7.18245 8.75944 6.58545 9.34277 6.16162C9.93066 5.73324 10.7555 5.51904 11.8174 5.51904H13.0479V4.93799C13.0479 4.49593 12.9157 4.14502 12.6514 3.88525C12.387 3.62093 11.9974 3.48877 11.4824 3.48877C11.0312 3.48877 10.653 3.6027 10.3477 3.83057C10.0423 4.05843 9.88965 4.33415 9.88965 4.65771H8.61816C8.61816 4.28857 8.74805 3.93311 9.00781 3.59131C9.27214 3.24495 9.6276 2.97152 10.0742 2.771C10.5254 2.57048 11.0199 2.47021 11.5576 2.47021C12.4098 2.47021 13.0775 2.68441 13.5605 3.11279C14.0436 3.53662 14.2943 4.12223 14.3125 4.86963V8.27393C14.3125 8.95296 14.3991 9.493 14.5723 9.89404V10.0034H13.2461ZM11.1475 9.03955C11.5439 9.03955 11.9199 8.93701 12.2754 8.73193C12.6309 8.52686 12.8883 8.26025 13.0479 7.93213V6.41455H12.0566C10.5072 6.41455 9.73242 6.868 9.73242 7.7749C9.73242 8.17139 9.86458 8.48128 10.1289 8.70459C10.3932 8.9279 10.7327 9.03955 11.1475 9.03955ZM17.6758 2.60693V8.97119H20.3828V2.60693H21.6475V8.97119H24.3477V2.60693H25.6191V10.0034H16.4043V2.60693H17.6758ZM35.8662 3.65283H32.4551V10.0034H31.1836V2.60693H35.8662V3.65283ZM36.4951 6.23682C36.4951 5.51221 36.6364 4.86051 36.9189 4.28174C37.2061 3.70296 37.6025 3.25635 38.1084 2.94189C38.6188 2.62744 39.1999 2.47021 39.8516 2.47021C40.8587 2.47021 41.6722 2.81885 42.292 3.51611C42.9163 4.21338 43.2285 5.14079 43.2285 6.29834V6.38721C43.2285 7.10726 43.0895 7.75439 42.8115 8.32861C42.5381 8.89827 42.1439 9.34261 41.6289 9.66162C41.1185 9.98063 40.5306 10.1401 39.8652 10.1401C38.8626 10.1401 38.0492 9.7915 37.4248 9.09424C36.805 8.39697 36.4951 7.47412 36.4951 6.32568V6.23682ZM37.7666 6.38721C37.7666 7.20752 37.9557 7.86605 38.334 8.36279C38.7168 8.85954 39.2272 9.10791 39.8652 9.10791C40.5078 9.10791 41.0182 8.85726 41.3965 8.35596C41.7747 7.8501 41.9639 7.14372 41.9639 6.23682C41.9639 5.42562 41.7702 4.76937 41.3828 4.26807C41 3.76221 40.4896 3.50928 39.8516 3.50928C39.2272 3.50928 38.7236 3.75765 38.3408 4.25439C37.958 4.75114 37.7666 5.46208 37.7666 6.38721ZM51.0625 6.38721C51.0625 7.51286 50.805 8.41976 50.29 9.10791C49.7751 9.79606 49.0778 10.1401 48.1982 10.1401C47.3005 10.1401 46.5941 9.85531 46.0791 9.28564V12.8472H44.8145V2.60693H45.9697L46.0312 3.42725C46.5462 2.78923 47.2617 2.47021 48.1777 2.47021C49.0664 2.47021 49.7682 2.80518 50.2832 3.4751C50.8027 4.14502 51.0625 5.07699 51.0625 6.271V6.38721ZM49.7979 6.24365C49.7979 5.40967 49.6201 4.75114 49.2646 4.26807C48.9092 3.78499 48.4215 3.54346 47.8018 3.54346C47.0361 3.54346 46.4619 3.88298 46.0791 4.56201V8.09619C46.4574 8.77067 47.0361 9.10791 47.8154 9.10791C48.4215 9.10791 48.9023 8.86865 49.2578 8.39014C49.6178 7.90706 49.7979 7.19157 49.7979 6.24365ZM52.3408 6.23682C52.3408 5.51221 52.4821 4.86051 52.7646 4.28174C53.0518 3.70296 53.4482 3.25635 53.9541 2.94189C54.4645 2.62744 55.0456 2.47021 55.6973 2.47021C56.7044 2.47021 57.5179 2.81885 58.1377 3.51611C58.762 4.21338 59.0742 5.14079 59.0742 6.29834V6.38721C59.0742 7.10726 58.9352 7.75439 58.6572 8.32861C58.3838 8.89827 57.9896 9.34261 57.4746 9.66162C56.9642 9.98063 56.3763 10.1401 55.7109 10.1401C54.7083 10.1401 53.8949 9.7915 53.2705 9.09424C52.6507 8.39697 52.3408 7.47412 52.3408 6.32568V6.23682ZM53.6123 6.38721C53.6123 7.20752 53.8014 7.86605 54.1797 8.36279C54.5625 8.85954 55.0729 9.10791 55.7109 9.10791C56.3535 9.10791 56.8639 8.85726 57.2422 8.35596C57.6204 7.8501 57.8096 7.14372 57.8096 6.23682C57.8096 5.42562 57.6159 4.76937 57.2285 4.26807C56.8457 3.76221 56.3353 3.50928 55.6973 3.50928C55.0729 3.50928 54.5693 3.75765 54.1865 4.25439C53.8037 4.75114 53.6123 5.46208 53.6123 6.38721ZM60.1064 8.97119L60.5439 8.43115C61.0361 7.79313 61.3164 6.8361 61.3848 5.56006L61.501 2.60693H66.2656V8.97119H67.2158V12.1772H65.9512V10.0034H60.79V12.1772H59.5254L59.5322 8.97119H60.1064ZM61.6035 8.97119H65.001V3.77588H62.7246L62.6494 5.53955C62.5719 7.01156 62.2233 8.15544 61.6035 8.97119ZM68.5762 9.34033C68.5762 9.12158 68.64 8.93929 68.7676 8.79346C68.8997 8.64762 69.0957 8.57471 69.3555 8.57471C69.6152 8.57471 69.8112 8.64762 69.9434 8.79346C70.0801 8.93929 70.1484 9.12158 70.1484 9.34033C70.1484 9.54997 70.0801 9.72542 69.9434 9.8667C69.8112 10.008 69.6152 10.0786 69.3555 10.0786C69.0957 10.0786 68.8997 10.008 68.7676 9.8667C68.64 9.72542 68.5762 9.54997 68.5762 9.34033ZM68.583 3.3042C68.583 3.08545 68.6468 2.90316 68.7744 2.75732C68.9066 2.61149 69.1025 2.53857 69.3623 2.53857C69.6221 2.53857 69.818 2.61149 69.9502 2.75732C70.0869 2.90316 70.1553 3.08545 70.1553 3.3042C70.1553 3.51383 70.0869 3.68929 69.9502 3.83057C69.818 3.97184 69.6221 4.04248 69.3623 4.04248C69.1025 4.04248 68.9066 3.97184 68.7744 3.83057C68.6468 3.68929 68.583 3.51383 68.583 3.3042Z" fill="#656565"/>
<path d="M81.1748 7.40576H77.0049L76.0684 10.0034H74.7148L78.5156 0.050293H79.6641L83.4717 10.0034H82.125L81.1748 7.40576ZM77.4014 6.32568H80.7852L79.0898 1.67041L77.4014 6.32568ZM90.7998 2.60693V10.0034H89.5283V3.65283H87.0127L86.8623 6.42139C86.7803 7.69287 86.5661 8.60205 86.2197 9.14893C85.8779 9.6958 85.3333 9.98063 84.5859 10.0034H84.0801V8.88916L84.4424 8.86182C84.8525 8.81624 85.1465 8.57926 85.3242 8.15088C85.502 7.72249 85.6159 6.92952 85.666 5.77197L85.8027 2.60693H90.7998ZM97.0889 8.32861L99.6045 2.60693H101.184V10.0034H99.9189V4.62354L97.5264 10.0034H96.6514L94.2109 4.50732V10.0034H92.9463V2.60693H94.5869L97.0889 8.32861ZM107.787 10.0034C107.714 9.85758 107.655 9.59782 107.609 9.22412C107.021 9.8348 106.32 10.1401 105.504 10.1401C104.775 10.1401 104.175 9.93506 103.706 9.5249C103.241 9.11019 103.009 8.5861 103.009 7.95264C103.009 7.18245 103.3 6.58545 103.884 6.16162C104.472 5.73324 105.297 5.51904 106.358 5.51904H107.589V4.93799C107.589 4.49593 107.457 4.14502 107.192 3.88525C106.928 3.62093 106.538 3.48877 106.023 3.48877C105.572 3.48877 105.194 3.6027 104.889 3.83057C104.583 4.05843 104.431 4.33415 104.431 4.65771H103.159C103.159 4.28857 103.289 3.93311 103.549 3.59131C103.813 3.24495 104.169 2.97152 104.615 2.771C105.066 2.57048 105.561 2.47021 106.099 2.47021C106.951 2.47021 107.618 2.68441 108.102 3.11279C108.585 3.53662 108.835 4.12223 108.854 4.86963V8.27393C108.854 8.95296 108.94 9.493 109.113 9.89404V10.0034H107.787ZM105.688 9.03955C106.085 9.03955 106.461 8.93701 106.816 8.73193C107.172 8.52686 107.429 8.26025 107.589 7.93213V6.41455H106.598C105.048 6.41455 104.273 6.868 104.273 7.7749C104.273 8.17139 104.406 8.48128 104.67 8.70459C104.934 8.9279 105.274 9.03955 105.688 9.03955ZM116.223 3.63232H113.741V10.0034H112.477V3.63232H110.043V2.60693H116.223V3.63232ZM118.834 5.15674H120.755C121.593 5.16585 122.257 5.3846 122.744 5.81299C123.232 6.24137 123.476 6.82243 123.476 7.55615C123.476 8.29443 123.225 8.88688 122.724 9.3335C122.222 9.78011 121.548 10.0034 120.7 10.0034H117.569V2.60693H118.834V5.15674ZM126.114 10.0034H124.843V2.60693H126.114V10.0034ZM118.834 6.18896V8.97119H120.714C121.188 8.97119 121.555 8.85042 121.814 8.60889C122.074 8.36279 122.204 8.02783 122.204 7.604C122.204 7.19385 122.076 6.85889 121.821 6.59912C121.571 6.3348 121.217 6.19808 120.762 6.18896H118.834ZM139.236 3.75342C139.236 3.69092 139.205 3.6206 139.158 3.57373L138.768 3.1831C138.721 3.13623 138.65 3.10498 138.588 3.10498C138.525 3.10498 138.455 3.13623 138.408 3.1831L135.338 6.25342L132.268 3.1831C132.221 3.13623 132.15 3.10498 132.088 3.10498C132.018 3.10498 131.955 3.13623 131.908 3.1831L131.518 3.57373C131.471 3.6206 131.439 3.69092 131.439 3.75342C131.439 3.81592 131.471 3.88623 131.518 3.93311L135.158 7.57373C135.205 7.62061 135.275 7.65186 135.338 7.65186C135.4 7.65186 135.471 7.62061 135.518 7.57373L139.158 3.93311C139.205 3.88623 139.236 3.81592 139.236 3.75342Z" fill="#0391D3"/>
</svg>
